<svg xmlns="http://www.w3.org/2000/svg" width="63.055" height="63.055" viewBox="0 0 63.055 63.055">
  <path id="Icon_awesome-check-circle" data-name="Icon awesome-check-circle" d="M63.617,32.09A31.527,31.527,0,1,1,32.09.563,31.527,31.527,0,0,1,63.617,32.09ZM28.443,48.783,51.834,25.392a2.034,2.034,0,0,0,0-2.876l-2.876-2.876a2.034,2.034,0,0,0-2.877,0L27,38.715,18.1,29.809a2.034,2.034,0,0,0-2.877,0l-2.876,2.876a2.034,2.034,0,0,0,0,2.876L25.566,48.783A2.034,2.034,0,0,0,28.443,48.783Z" transform="translate(-0.563 -0.563)" fill="#fff"/>
</svg>
