<svg xmlns="http://www.w3.org/2000/svg" width="28.604" height="28.641" viewBox="0 0 28.604 28.641">
  <path id="Icon_zocial-call" data-name="Icon zocial-call" d="M3.327,8.566a2.107,2.107,0,0,1,.536-1.144L8.155,3.131q.5-.429.751.143l3.469,6.508a.936.936,0,0,1-.179,1.109l-1.573,1.573a1.779,1.779,0,0,0-.5,1.109,5.459,5.459,0,0,0,1.109,2.754,23.515,23.515,0,0,0,2.181,2.862l1.109,1.143c.334.334.762.745,1.289,1.234A21.589,21.589,0,0,0,18.4,23.5a5.8,5.8,0,0,0,2.843,1.2,1.557,1.557,0,0,0,1.144-.465l1.861-1.86a.786.786,0,0,1,1.072-.143l6.259,3.683a.523.523,0,0,1,.286.375.457.457,0,0,1-.143.411l-4.291,4.291a2.1,2.1,0,0,1-1.143.535,8.652,8.652,0,0,1-3.953-.483,17.883,17.883,0,0,1-4.076-1.949q-1.877-1.215-3.487-2.466T12.2,24.48l-.93-.9q-.357-.357-.948-.983T8.262,20.135a35.915,35.915,0,0,1-2.539-3.594,20.966,20.966,0,0,1-1.86-3.987A8.482,8.482,0,0,1,3.327,8.566Z" transform="translate(-3.267 -2.947)" fill="#fff"/>
</svg>
