<svg xmlns="http://www.w3.org/2000/svg" width="38.954" height="38.954" viewBox="0 0 38.954 38.954"><path d="M17.413,19.555,26.7,3.467A20.072,20.072,0,0,0,22.477,3,19.446,19.446,0,0,0,10.168,7.382L17.3,19.75Zm23.645-2.922A19.526,19.526,0,0,0,29.372,4.285L22.243,16.634H41.058Zm.506,1.948H26.976l.565.974,9.271,16.069a19.3,19.3,0,0,0,5.142-13.147A19.718,19.718,0,0,0,41.565,18.582Zm-25.827,3.9L8.142,9.33A19.4,19.4,0,0,0,3,22.477a19.718,19.718,0,0,0,.39,3.9H17.978l-2.24-3.9ZM3.9,28.32A19.526,19.526,0,0,0,15.582,40.669L22.711,28.32H3.9Zm21.951,0-7.6,13.166a20.072,20.072,0,0,0,4.227.467,19.446,19.446,0,0,0,12.309-4.382L27.658,25.2,25.847,28.32Z" transform="translate(-3 -3)" fill="#fff"/></svg>