<svg xmlns="http://www.w3.org/2000/svg" width="13.523" height="13.522" viewBox="0 0 13.523 13.522">
  <path id="Icon_metro-cross" data-name="Icon metro-cross" d="M15.97,12.792h0l-4.1-4.1,4.1-4.1h0a.424.424,0,0,0,0-.6L14.032,2.052a.424.424,0,0,0-.6,0h0l-4.1,4.1-4.1-4.1h0a.424.424,0,0,0-.6,0L2.694,3.989a.424.424,0,0,0,0,.6h0l4.1,4.1-4.1,4.1h0a.423.423,0,0,0,0,.6l1.938,1.938a.424.424,0,0,0,.6,0h0l4.1-4.1,4.1,4.1h0a.423.423,0,0,0,.6,0l1.938-1.938a.423.423,0,0,0,0-.6Z" transform="translate(-2.571 -1.928)" fill="#fff"/>
</svg>
