<svg xmlns="http://www.w3.org/2000/svg" width="13.035" height="13.035" viewBox="0 0 13.035 13.035"><path d="M15.487,12.4h0L11.533,8.446l3.954-3.955h0a.408.408,0,0,0,0-.576L13.619,2.047a.408.408,0,0,0-.576,0h0L9.088,6,5.134,2.047h0a.408.408,0,0,0-.576,0L2.69,3.915a.408.408,0,0,0,0,.576h0L6.644,8.446,2.69,12.4h0a.408.408,0,0,0,0,.576l1.868,1.868a.408.408,0,0,0,.576,0h0L9.088,10.89l3.954,3.955h0a.408.408,0,0,0,.576,0l1.868-1.868a.408.408,0,0,0,0-.576Z" transform="translate(-2.571 -1.928)" fill="#fff"/></svg>