<svg xmlns="http://www.w3.org/2000/svg" width="69.421" height="69.422" viewBox="0 0 69.421 69.422">
  <path id="Icon_awesome-clock" data-name="Icon awesome-clock" d="M35.273.563A34.711,34.711,0,1,0,69.984,35.273,34.7,34.7,0,0,0,35.273.563Zm7.992,49L30.92,40.592a1.69,1.69,0,0,1-.686-1.358V15.678A1.684,1.684,0,0,1,31.914,14h6.718a1.684,1.684,0,0,1,1.68,1.68V34.951L49.2,41.417a1.679,1.679,0,0,1,.364,2.351L45.616,49.2A1.691,1.691,0,0,1,43.265,49.563Z" transform="translate(-0.563 -0.563)" fill="#fff"/>
</svg>
