<svg xmlns="http://www.w3.org/2000/svg" width="18.533" height="14.827" viewBox="0 0 18.533 14.827">
  <path id="Icon_awesome-user-clock" data-name="Icon awesome-user-clock" d="M14.363,6.487a4.17,4.17,0,1,0,4.17,4.17A4.167,4.167,0,0,0,14.363,6.487Zm1.853,4.352a.283.283,0,0,1-.281.281H14.181a.283.283,0,0,1-.281-.281V8.621a.283.283,0,0,1,.281-.281h.365a.283.283,0,0,1,.281.281v1.572h1.109a.283.283,0,0,1,.281.281Zm-6.95-.182a5.079,5.079,0,0,1,.527-2.244,3.859,3.859,0,0,0-.712-.072H8.6a5.041,5.041,0,0,1-4.222,0H3.892A3.893,3.893,0,0,0,0,12.232v1.2a1.39,1.39,0,0,0,1.39,1.39H11.441A5.1,5.1,0,0,1,9.267,10.657ZM6.487,7.413A3.707,3.707,0,1,0,2.78,3.707,3.706,3.706,0,0,0,6.487,7.413Z" fill="#00b5ff"/>
</svg>
