<svg xmlns="http://www.w3.org/2000/svg" xmlns:xlink="http://www.w3.org/1999/xlink" width="68" height="68" viewBox="0 0 68 68">
  <defs>
    <linearGradient id="linear-gradient" y1="0.5" x2="1" y2="0.5" gradientUnits="objectBoundingBox">
      <stop offset="0" stop-color="#005fff"/>
      <stop offset="1" stop-color="#00b7ff"/>
    </linearGradient>
  </defs>
  <g id="Group_181" data-name="Group 181" transform="translate(-1984 -9053)">
    <circle id="Ellipse_9" data-name="Ellipse 9" cx="34" cy="34" r="34" transform="translate(1984 9053)" fill="url(#linear-gradient)"/>
    <path id="Icon_map-electrician" data-name="Icon map-electrician" d="M34.216,11.824H29.945V2.359a1.71,1.71,0,0,0-3.417,0v9.465H12.862V2.359a1.71,1.71,0,0,0-3.417,0v9.465H5.174c-.472,0-.854.742-.854,1.195v4.1c0,4.919,8.542,10.631,8.542,18.532V38.3h3.417V41.72h6.833V38.3h3.417V35.652c0-7.9,8.542-13.614,8.542-18.532v-4.1c0-.453-.382-1.195-.854-1.195m-15.455,14a.246.246,0,0,0-.253-.331H15.19c-.2,0-.252-.111-.127-.255,0,0,6.838-8.678,6.971-8.845.1-.159.212-.1.177.079-.053.231-1.513,6.152-1.513,6.152-.071.174.032.307.226.307h3.32c.2,0,.258.132.138.28,0,0-6.848,8.885-6.971,9.034s-.238.1-.176-.149l1.526-6.27" transform="translate(1998.68 9065.28)" fill="#fff"/>
  </g>
</svg>
