<svg xmlns="http://www.w3.org/2000/svg" width="98.459" height="98.459" viewBox="0 0 98.459 98.459"><path d="M51.479,33.9A17.582,17.582,0,1,0,69.061,51.479,17.633,17.633,0,0,0,51.479,33.9ZM93.443,46.791A42.357,42.357,0,0,0,56.168,9.517V2.25H46.791V9.517A42.356,42.356,0,0,0,9.516,46.791H2.25v9.377H9.516A42.358,42.358,0,0,0,46.791,93.442v7.266h9.377V93.443A42.359,42.359,0,0,0,93.442,56.168h7.266V46.791ZM51.479,84.3A32.82,32.82,0,1,1,84.3,51.479,32.915,32.915,0,0,1,51.479,84.3Z" transform="translate(-2.25 -2.25)" fill="#fff"/></svg>