<svg xmlns="http://www.w3.org/2000/svg" width="32.405" height="40.87" viewBox="0 0 32.405 40.87"><defs><style>.a{fill:#fff;}</style></defs><g transform="translate(-53.023)"><g transform="translate(53.023 8.063)"><g transform="translate(0)"><path class="a" d="M85.408,126.645l-1.825-23A2.874,2.874,0,0,0,80.731,101H77.126v5.342a1.2,1.2,0,1,1-2.394,0V101H63.72v5.342a1.2,1.2,0,0,1-2.394,0V101H57.721a2.873,2.873,0,0,0-2.853,2.639l-1.826,23a6.655,6.655,0,0,0,6.635,7.164h19.1a6.654,6.654,0,0,0,6.634-7.167Zm-10.79-11.712-6.191,6.191a1.2,1.2,0,0,1-1.693,0l-2.9-2.9a1.2,1.2,0,1,1,1.693-1.692l2.056,2.055,5.345-5.345a1.2,1.2,0,1,1,1.692,1.693Z" transform="translate(-53.023 -101.005)"/></g></g><g transform="translate(61.326)"><path class="a" d="M164.939,0a7.909,7.909,0,0,0-7.9,7.9v.162h2.394V7.9a5.506,5.506,0,1,1,11.012,0v.162h2.394V7.9A7.909,7.909,0,0,0,164.939,0Z" transform="translate(-157.039)"/></g></g></svg>