<svg xmlns="http://www.w3.org/2000/svg" xmlns:xlink="http://www.w3.org/1999/xlink" width="69.229" height="69.229" viewBox="0 0 69.229 69.229">
  <defs>
    <linearGradient id="linear-gradient" y1="0.5" x2="1" y2="0.5" gradientUnits="objectBoundingBox">
      <stop offset="0" stop-color="#005fff"/>
      <stop offset="1" stop-color="#00b7ff"/>
    </linearGradient>
  </defs>
  <g id="Group_9" data-name="Group 9" transform="translate(0 0)">
    <circle id="Ellipse_11" data-name="Ellipse 11" cx="34.615" cy="34.615" r="34.615" fill="url(#linear-gradient)"/>
    <path id="Path_14" data-name="Path 14" d="M1245.371,679.311V681.6a1.348,1.348,0,0,1-1.348,1.348h-6.656a1.348,1.348,0,0,1-1.348-1.348v-2.291a1.348,1.348,0,0,1,1.08-1.321v-2.579a.835.835,0,0,0-.835-.835h-.274a7.089,7.089,0,0,1-12.376,0h-10.237a1.348,1.348,0,0,1-1.348-1.348v-4.452a1.348,1.348,0,0,1,1.348-1.348h10.376a7.107,7.107,0,0,1,3.676-2.982v-1.674a1.317,1.317,0,0,1,.027-.269h-3.619a1.348,1.348,0,0,1-1.348-1.348v-1.931a1.348,1.348,0,0,1,1.348-1.348h3.592v-.168a1.348,1.348,0,0,1,1.348-1.348h2.049a1.348,1.348,0,0,1,1.348,1.348v.168h3.592a1.348,1.348,0,0,1,1.348,1.348v1.931a1.348,1.348,0,0,1-1.348,1.348h-3.619a1.361,1.361,0,0,1,.027.269v1.674a7.109,7.109,0,0,1,3.677,2.982h2.6a5.763,5.763,0,0,1,5.757,5.757v4.792A1.347,1.347,0,0,1,1245.371,679.311Zm-1.4,12.946a1.4,1.4,0,0,0-.069-.234l-2-6.385a1.348,1.348,0,0,0-2.572,0l-2.034,6.48c-.01.033-.019.065-.027.1a3.509,3.509,0,1,0,6.707.042Z" transform="translate(-1194.085 -640.242)" fill="#fff"/>
  </g>
</svg>
