<svg xmlns="http://www.w3.org/2000/svg" width="59.139" height="59.139" viewBox="0 0 59.139 59.139">
  <path id="Icon_metro-cross" data-name="Icon metro-cross" d="M61.17,49.439h0L43.229,31.5,61.17,13.557h0a1.852,1.852,0,0,0,0-2.613L52.695,2.468a1.853,1.853,0,0,0-2.613,0h0L32.14,20.409,14.2,2.468h0a1.853,1.853,0,0,0-2.613,0L3.111,10.943a1.852,1.852,0,0,0,0,2.613h0L21.052,31.5,3.111,49.439h0a1.852,1.852,0,0,0,0,2.613l8.475,8.475a1.852,1.852,0,0,0,2.613,0h0L32.14,42.586,50.081,60.527h0a1.852,1.852,0,0,0,2.613,0l8.475-8.475a1.852,1.852,0,0,0,0-2.613Z" transform="translate(-2.571 -1.928)" fill="#fff"/>
</svg>
