<svg xmlns="http://www.w3.org/2000/svg" xmlns:xlink="http://www.w3.org/1999/xlink" width="56.926" height="81.05" viewBox="0 0 56.926 81.05"><defs><style>.a{fill:url(#a);}.b{fill:#fff;}</style><linearGradient id="a" y1="1.636" x2="1" y2="1.636" gradientUnits="objectBoundingBox"><stop offset="0" stop-color="#005fff"/><stop offset="1" stop-color="#00b7ff"/></linearGradient></defs><path class="a" d="M456.807,389.334c0,15.722-14.267,32.843-28.468,53.1-13.677-20.259-28.458-37.38-28.458-53.1a28.468,28.468,0,0,1,56.926,0Z" transform="translate(-399.881 -361.387)"/><path class="b" d="M457.267,397.833l-3.8-.637a1.2,1.2,0,0,1-.951-.894,14.364,14.364,0,0,0-1.569-3.8,1.237,1.237,0,0,1,.057-1.322l2.226-3.043a.249.249,0,0,0,0-.3l-2.682-2.682a.256.256,0,0,0-.3,0l-3.11,2.235a1.208,1.208,0,0,1-1.322.047,14.691,14.691,0,0,0-3.852-1.579,1.226,1.226,0,0,1-.9-.951l-.628-3.747a.229.229,0,0,0-.238-.2h-3.8a.228.228,0,0,0-.228.2l-.647,3.8a1.246,1.246,0,0,1-.894.951,14.19,14.19,0,0,0-3.8,1.5,1.208,1.208,0,0,1-1.332-.057l-3.1-2.206a.223.223,0,0,0-.133,0,.208.208,0,0,0-.171.076L423.4,387.9a.228.228,0,0,0,0,.3l2.235,3.148a1.18,1.18,0,0,1,.067,1.313,14.337,14.337,0,0,0-1.541,3.8,1.2,1.2,0,0,1-.951.894l-3.8.561a.228.228,0,0,0-.2.228v3.8a.247.247,0,0,0,.2.238l3.8.647a1.217,1.217,0,0,1,.951.884,14.579,14.579,0,0,0,1.579,3.8,1.227,1.227,0,0,1,0,1.332l-2.207,3.043a.258.258,0,0,0,0,.3l2.682,2.682a.245.245,0,0,0,.171.067.346.346,0,0,0,.133,0l3.148-2.244a1.236,1.236,0,0,1,1.312-.057,14.836,14.836,0,0,0,3.691,1.5,1.207,1.207,0,0,1,.884.951l.628,3.8a.238.238,0,0,0,.238.19h3.8a.238.238,0,0,0,.238-.19l.637-3.8a1.189,1.189,0,0,1,.885-.951,14.4,14.4,0,0,0,3.8-1.56,1.2,1.2,0,0,1,1.322.057l3.12,2.216a.206.206,0,0,0,.133.047.226.226,0,0,0,.171-.076l2.682-2.673a.277.277,0,0,0,0-.314l-2.226-3.13a1.226,1.226,0,0,1-.057-1.322,14.359,14.359,0,0,0,1.57-3.8,1.189,1.189,0,0,1,.951-.885l3.8-.637a.238.238,0,0,0,.2-.228h0v-3.8A.239.239,0,0,0,457.267,397.833Zm-18.918,11.414a9.293,9.293,0,1,1,9.293-9.293h0a9.3,9.3,0,0,1-9.293,9.3Z" transform="translate(-409.891 -371.522)"/><ellipse class="b" cx="5.013" cy="5.013" rx="5.013" ry="5.013" transform="translate(23.446 23.429)"/></svg>