<svg xmlns="http://www.w3.org/2000/svg" width="63.63" height="55.927" viewBox="0 0 63.63 55.927"><path d="M167.963,363.52c-.731,1.079-1.5,2.177-2.3,3.3.045,0,.089-.007.135-.007a1.864,1.864,0,1,1-1.8,2.331c-.772,1.073-1.557,2.167-2.343,3.283a5.592,5.592,0,1,0,6.313-8.906Z" transform="translate(-141.561 -318.343)"/><path d="M242.441,330H217.174c-.7,1.217-1.491,2.458-2.344,3.728h27.611a1.864,1.864,0,1,0,0-3.728Z" transform="translate(-188.132 -288.989)"/><path d="M63.257,8.2a1.864,1.864,0,0,0-1.491-.746H16.2l-1.333-6A1.864,1.864,0,0,0,13.049,0H1.864a1.864,1.864,0,0,0,0,3.728h9.694l3.63,16.339a12.159,12.159,0,0,1,3.609-.928l-1.771-7.954H59.294L52.9,33.555H32.064a18.151,18.151,0,0,1-1.145,3.728h23.39A1.864,1.864,0,0,0,56.1,35.931l7.457-26.1a1.864,1.864,0,0,0-.3-1.631Z"/><path d="M362,365.592A5.592,5.592,0,1,0,367.592,360,5.592,5.592,0,0,0,362,365.592Zm5.592-1.864a1.864,1.864,0,1,1-1.864,1.864,1.864,1.864,0,0,1,1.864-1.864Z" transform="translate(-317.012 -315.26)"/><path d="M75.381,154.43A12.232,12.232,0,0,0,63.15,166.661c0,6.756,6.352,14.114,12.231,22.819,6.117-8.7,12.233-16.063,12.233-22.817A12.233,12.233,0,0,0,75.381,154.43Zm8.213,13.255h0a.1.1,0,0,1-.085.1l-1.624.271a.518.518,0,0,0-.416.383,6.2,6.2,0,0,1-.674,1.616.526.526,0,0,0,.024.568l.953,1.35a.1.1,0,0,1-.011.13l-1.152,1.152a.1.1,0,0,1-.073.031.092.092,0,0,1-.058-.02l-1.341-.954a.523.523,0,0,0-.568-.022,6.2,6.2,0,0,1-1.616.672.512.512,0,0,0-.383.418l-.281,1.628a.1.1,0,0,1-.1.085H74.565a.1.1,0,0,1-.1-.085l-.272-1.628a.52.52,0,0,0-.383-.418,6.419,6.419,0,0,1-1.585-.65.543.543,0,0,0-.263-.07.5.5,0,0,0-.3.1l-1.353.962a.107.107,0,0,1-.058.02.1.1,0,0,1-.073-.031l-1.151-1.152a.1.1,0,0,1-.012-.13l.954-1.333a.529.529,0,0,0,.024-.573,6.089,6.089,0,0,1-.68-1.616.533.533,0,0,0-.418-.383l-1.635-.277a.1.1,0,0,1-.085-.1V166.1a.1.1,0,0,1,.085-.1l1.616-.271a.521.521,0,0,0,.421-.386,6.151,6.151,0,0,1,.661-1.623.517.517,0,0,0-.027-.564l-.962-1.353a.106.106,0,0,1,.011-.132l1.152-1.151a.1.1,0,0,1,.073-.031.1.1,0,0,1,.058.019l1.321.957a.529.529,0,0,0,.573.024,6.1,6.1,0,0,1,1.616-.68.533.533,0,0,0,.383-.418l.287-1.642a.1.1,0,0,1,.1-.085h1.628a.1.1,0,0,1,.1.085l.27,1.616a.523.523,0,0,0,.386.421,6.271,6.271,0,0,1,1.653.679.526.526,0,0,0,.569-.022l1.333-.959a.115.115,0,0,1,.057-.019.1.1,0,0,1,.073.031l1.152,1.152a.1.1,0,0,1,.011.13l-.954,1.341a.524.524,0,0,0-.022.569,6.2,6.2,0,0,1,.672,1.616.513.513,0,0,0,.418.383l1.623.273a.1.1,0,0,1,.085.1Z" transform="translate(-55.302 -135.238)"/><path d="M133.433,222.43a3.993,3.993,0,1,0,3.993,3.993A3.993,3.993,0,0,0,133.433,222.43Zm0,6.147a2.155,2.155,0,1,1,2.155-2.155A2.155,2.155,0,0,1,133.433,228.577Z" transform="translate(-113.354 -194.787)"/><path d="M167.963,363.52c-.731,1.079-1.5,2.177-2.3,3.3.045,0,.089-.007.135-.007a1.864,1.864,0,1,1-1.8,2.331c-.772,1.073-1.557,2.167-2.343,3.283a5.592,5.592,0,1,0,6.313-8.906Z" transform="translate(-141.561 -318.343)" fill="#fff"/><path d="M242.441,330H217.174c-.7,1.217-1.491,2.458-2.344,3.728h27.611a1.864,1.864,0,1,0,0-3.728Z" transform="translate(-188.132 -288.989)" fill="#fff"/><path d="M63.257,8.2a1.864,1.864,0,0,0-1.491-.746H16.2l-1.333-6A1.864,1.864,0,0,0,13.049,0H1.864a1.864,1.864,0,0,0,0,3.728h9.694l3.63,16.339a12.159,12.159,0,0,1,3.609-.928l-1.771-7.954H59.294L52.9,33.555H32.064a18.151,18.151,0,0,1-1.145,3.728h23.39A1.864,1.864,0,0,0,56.1,35.931l7.457-26.1a1.864,1.864,0,0,0-.3-1.631Z" fill="#fff"/><path d="M362,365.592A5.592,5.592,0,1,0,367.592,360,5.592,5.592,0,0,0,362,365.592Zm5.592-1.864a1.864,1.864,0,1,1-1.864,1.864,1.864,1.864,0,0,1,1.864-1.864Z" transform="translate(-317.012 -315.26)" fill="#fff"/><path d="M75.381,154.43A12.232,12.232,0,0,0,63.15,166.661c0,6.756,6.352,14.114,12.231,22.819,6.117-8.7,12.233-16.063,12.233-22.817A12.233,12.233,0,0,0,75.381,154.43Zm8.213,13.255h0a.1.1,0,0,1-.085.1l-1.624.271a.518.518,0,0,0-.416.383,6.2,6.2,0,0,1-.674,1.616.526.526,0,0,0,.024.568l.953,1.35a.1.1,0,0,1-.011.13l-1.152,1.152a.1.1,0,0,1-.073.031.092.092,0,0,1-.058-.02l-1.341-.954a.523.523,0,0,0-.568-.022,6.2,6.2,0,0,1-1.616.672.512.512,0,0,0-.383.418l-.281,1.628a.1.1,0,0,1-.1.085H74.565a.1.1,0,0,1-.1-.085l-.272-1.628a.52.52,0,0,0-.383-.418,6.419,6.419,0,0,1-1.585-.65.543.543,0,0,0-.263-.07.5.5,0,0,0-.3.1l-1.353.962a.107.107,0,0,1-.058.02.1.1,0,0,1-.073-.031l-1.151-1.152a.1.1,0,0,1-.012-.13l.954-1.333a.529.529,0,0,0,.024-.573,6.089,6.089,0,0,1-.68-1.616.533.533,0,0,0-.418-.383l-1.635-.277a.1.1,0,0,1-.085-.1V166.1a.1.1,0,0,1,.085-.1l1.616-.271a.521.521,0,0,0,.421-.386,6.151,6.151,0,0,1,.661-1.623.517.517,0,0,0-.027-.564l-.962-1.353a.106.106,0,0,1,.011-.132l1.152-1.151a.1.1,0,0,1,.073-.031.1.1,0,0,1,.058.019l1.321.957a.529.529,0,0,0,.573.024,6.1,6.1,0,0,1,1.616-.68.533.533,0,0,0,.383-.418l.287-1.642a.1.1,0,0,1,.1-.085h1.628a.1.1,0,0,1,.1.085l.27,1.616a.523.523,0,0,0,.386.421,6.271,6.271,0,0,1,1.653.679.526.526,0,0,0,.569-.022l1.333-.959a.115.115,0,0,1,.057-.019.1.1,0,0,1,.073.031l1.152,1.152a.1.1,0,0,1,.011.13l-.954,1.341a.524.524,0,0,0-.022.569,6.2,6.2,0,0,1,.672,1.616.513.513,0,0,0,.418.383l1.623.273a.1.1,0,0,1,.085.1Z" transform="translate(-55.302 -135.238)" fill="#fff"/><path d="M133.433,222.43a3.993,3.993,0,1,0,3.993,3.993A3.993,3.993,0,0,0,133.433,222.43Zm0,6.147a2.155,2.155,0,1,1,2.155-2.155A2.155,2.155,0,0,1,133.433,228.577Z" transform="translate(-113.354 -194.787)" fill="#fff"/></svg>