<svg id="Group_567" data-name="Group 567" xmlns="http://www.w3.org/2000/svg" width="95.269" height="14.298" viewBox="0 0 95.269 14.298">
  <path id="Icon_ionic-ios-star" data-name="Icon ionic-ios-star" d="M17.063,8.324H12.007L10.471,3.739a.557.557,0,0,0-1.045,0L7.89,8.324H2.8a.552.552,0,0,0-.55.55.4.4,0,0,0,.01.093.528.528,0,0,0,.23.388l4.155,2.928L5.051,16.92a.551.551,0,0,0,.189.619.532.532,0,0,0,.309.134.674.674,0,0,0,.344-.124l4.056-2.89L14,17.549a.644.644,0,0,0,.344.124.494.494,0,0,0,.306-.134.545.545,0,0,0,.189-.619l-1.595-4.636,4.121-2.956.1-.086a.526.526,0,0,0-.406-.918Z" transform="translate(37.686 -3.375)" fill="#bebebe"/>
  <path id="Icon_ionic-ios-star-2" data-name="Icon ionic-ios-star" d="M17.063,8.324H12.007L10.471,3.739a.557.557,0,0,0-1.045,0L7.89,8.324H2.8a.552.552,0,0,0-.55.55.4.4,0,0,0,.01.093.528.528,0,0,0,.23.388l4.155,2.928L5.051,16.92a.551.551,0,0,0,.189.619.532.532,0,0,0,.309.134.674.674,0,0,0,.344-.124l4.056-2.89L14,17.549a.644.644,0,0,0,.344.124.494.494,0,0,0,.306-.134.545.545,0,0,0,.189-.619l-1.595-4.636,4.121-2.956.1-.086a.526.526,0,0,0-.406-.918Z" transform="translate(57.654 -3.375)" fill="#bebebe"/>
  <path id="Icon_ionic-ios-star-3" data-name="Icon ionic-ios-star" d="M17.063,8.324H12.007L10.471,3.739a.557.557,0,0,0-1.045,0L7.89,8.324H2.8a.552.552,0,0,0-.55.55.4.4,0,0,0,.01.093.528.528,0,0,0,.23.388l4.155,2.928L5.051,16.92a.551.551,0,0,0,.189.619.532.532,0,0,0,.309.134.674.674,0,0,0,.344-.124l4.056-2.89L14,17.549a.644.644,0,0,0,.344.124.494.494,0,0,0,.306-.134.545.545,0,0,0,.189-.619l-1.595-4.636,4.121-2.956.1-.086a.526.526,0,0,0-.406-.918Z" transform="translate(77.622 -3.375)" fill="#bebebe"/>
  <path id="Icon_ionic-ios-star-4" data-name="Icon ionic-ios-star" d="M17.063,8.324H12.007L10.471,3.739a.557.557,0,0,0-1.045,0L7.89,8.324H2.8a.552.552,0,0,0-.55.55.4.4,0,0,0,.01.093.528.528,0,0,0,.23.388l4.155,2.928L5.051,16.92a.551.551,0,0,0,.189.619.532.532,0,0,0,.309.134.674.674,0,0,0,.344-.124l4.056-2.89L14,17.549a.644.644,0,0,0,.344.124.494.494,0,0,0,.306-.134.545.545,0,0,0,.189-.619l-1.595-4.636,4.121-2.956.1-.086a.526.526,0,0,0-.406-.918Z" transform="translate(17.718 -3.375)" fill="#0060ff"/>
  <path id="Icon_ionic-ios-star-5" data-name="Icon ionic-ios-star" d="M17.063,8.324H12.007L10.471,3.739a.557.557,0,0,0-1.045,0L7.89,8.324H2.8a.552.552,0,0,0-.55.55.4.4,0,0,0,.01.093.528.528,0,0,0,.23.388l4.155,2.928L5.051,16.92a.551.551,0,0,0,.189.619.532.532,0,0,0,.309.134.674.674,0,0,0,.344-.124l4.056-2.89L14,17.549a.644.644,0,0,0,.344.124.494.494,0,0,0,.306-.134.545.545,0,0,0,.189-.619l-1.595-4.636,4.121-2.956.1-.086a.526.526,0,0,0-.406-.918Z" transform="translate(-2.25 -3.375)" fill="#0060ff"/>
</svg>
